# xmcd
#
# Track frame offsets: 
#        150
#        13608
#        29191
#        45086
#        61012
#        78336
#        92626
#        109758
#        124989
#        141815
#        159277
#        173550
#        190603
#        209665
#        223519
#        240627
#        260649
#        276905
#        292789
#        308017
#
# Disc length: 4399 seconds
#
# Revision: 0
# Processed by: cddbd v1.5.2PL0 Copyright (c) Steve Scherf et al.
# Submitted via: ExactAudioCopy v1.1
#
DISCID=11112d14
DTITLE=Various Artist - 100 x Zomer 2017 - CD 4
DYEAR=2017
DGENRE=Pop
TTITLE0=Alvaro Soler - El Mismo Sol
TTITLE1=Armin Van Buuren and Garibay Feat. Olaf Blackwood - I Need You
TTITLE2=Sia - Cheap Trills
TTITLE3=Jay Sean Feat. Sean Paul - Make My Love Go
TTITLE4=Afrojack Feat. Wrabel - Ten Feet Tall
TTITLE5=Lilly Wood and The Prick and Robin Schulz - Prayer In C (Robin Sch
TTITLE5=ulz Radio Edit)
TTITLE6=Rondé - Naturally
TTITLE7=Emeli Sandé - Hurts
TTITLE8=Katy Perry - Roar
TTITLE9=Avicii - Broken Arrows
TTITLE10=Sam Hunt - Leave The Night On
TTITLE11=Jonna Fraser Feat. Frenna - Ik Kom Bij Je
TTITLE12=Jarabe De Palo - Bonito
TTITLE13=Troye Sivan - Youth
TTITLE14=Manau - La Tribu De Dana
TTITLE15=LP - Lost On You
TTITLE16=Jon Bellion - All Time Low
TTITLE17=Seeb Feat. Jacob Banks - What Do You Love
TTITLE18=Youngr - Out Of My System
TTITLE19=Rae Sremmurd - Black Beatles
EXTD=
EXTT0=
EXTT1=
EXTT2=
EXTT3=
EXTT4=
EXTT5=
EXTT6=
EXTT7=
EXTT8=
EXTT9=
EXTT10=
EXTT11=
EXTT12=
EXTT13=
EXTT14=
EXTT15=
EXTT16=
EXTT17=
EXTT18=
EXTT19=
PLAYORDER=
